<?xml version="1.0" encoding="UTF-8"?>
<svg xmlns="http://www.w3.org/2000/svg" xmlns:xlink="http://www.w3.org/1999/xlink" width="150pt" height="150pt" viewBox="0 0 37 37" version="1.1">
<g id="surface27305">
<path style=" stroke:none;fill-rule:nonzero;fill:#FFD700;fill-opacity:1;" d="M 17.265625 32.066406 C 16.785156 32.066406 16.335938 31.785156 16.132812 31.320312 C 15.089844 28.90625 12.988281 27.175781 10.957031 25.496094 C 8 23.058594 4.941406 20.539062 4.941406 15.933594 C 4.941406 9.273438 10.089844 6.167969 13.566406 6.167969 C 16.058594 6.167969 18.121094 7.007812 19.75 8.105469 C 20.398438 7.667969 22.773438 6.167969 25.039062 6.167969 C 29.019531 6.167969 33.300781 8.867188 33.300781 14.800781 C 33.300781 26.5 18.304688 31.78125 17.667969 32 C 17.535156 32.042969 17.398438 32.066406 17.265625 32.066406 Z M 17.265625 32.066406 "/>
</g>
</svg>
