<?xml version="1.0" encoding="UTF-8"?>
<svg xmlns="http://www.w3.org/2000/svg" xmlns:xlink="http://www.w3.org/1999/xlink" width="75pt" height="75pt" viewBox="0 0 75 75" version="1.1">
<g id="surface3052">
<path style=" stroke:none;fill-rule:nonzero;fill:rgb(70.588235%,63.529412%,61.960784%);fill-opacity:1;" d="M 30.820312 3.574219 C 29.824219 3.515625 29.0625 4.277344 29.003906 5.273438 L 28.886719 12.304688 C 28.886719 12.949219 29.238281 13.535156 29.765625 13.886719 C 30 14.003906 30.292969 14.121094 30.585938 14.121094 C 31.582031 14.121094 32.34375 13.359375 32.402344 12.421875 L 32.519531 5.390625 C 32.519531 4.394531 31.757812 3.632812 30.820312 3.574219 Z M 13.804688 6.535156 C 13.574219 6.554688 13.34375 6.621094 13.125 6.738281 C 12.304688 7.207031 11.953125 8.261719 12.421875 9.140625 L 16.40625 16.289062 C 16.582031 16.582031 16.816406 16.816406 17.050781 16.933594 C 17.578125 17.226562 18.222656 17.285156 18.808594 16.933594 C 19.628906 16.464844 19.980469 15.410156 19.511719 14.53125 L 15.527344 7.382812 C 15.175781 6.8125 14.496094 6.472656 13.804688 6.535156 Z M 2.050781 19.117188 C 1.480469 19.160156 0.9375 19.46875 0.644531 19.980469 C 0.175781 20.800781 0.46875 21.914062 1.289062 22.382812 L 7.382812 25.898438 C 8.203125 26.367188 9.316406 26.074219 9.785156 25.253906 C 10.253906 24.433594 9.960938 23.320312 9.140625 22.851562 L 3.046875 19.335938 C 2.738281 19.160156 2.390625 19.089844 2.050781 19.117188 Z M 28.710938 20.507812 C 19.6875 20.507812 12.304688 27.890625 12.304688 36.914062 C 12.304688 54.199219 33.574219 71.601562 43.359375 71.601562 C 53.144531 71.601562 74.414062 54.199219 74.414062 36.914062 C 74.414062 27.890625 67.03125 20.507812 58.007812 20.507812 C 48.984375 20.507812 41.601562 27.890625 41.601562 36.914062 C 41.601562 37.910156 42.363281 38.671875 43.359375 38.671875 C 44.355469 38.671875 45.117188 37.910156 45.117188 36.914062 C 45.117188 29.824219 50.917969 24.023438 58.007812 24.023438 C 65.097656 24.023438 70.898438 29.824219 70.898438 36.914062 C 70.898438 52.617188 50.625 68.085938 43.359375 68.085938 C 36.09375 68.085938 15.820312 52.617188 15.820312 36.914062 C 15.820312 29.824219 21.621094 24.023438 28.710938 24.023438 C 32.285156 24.023438 35.625 25.429688 38.085938 28.066406 C 38.730469 28.769531 39.84375 28.828125 40.546875 28.125 C 41.25 27.480469 41.308594 26.367188 40.605469 25.664062 C 37.5 22.324219 33.28125 20.507812 28.710938 20.507812 Z M 28.710938 27.539062 C 23.554688 27.539062 19.335938 31.757812 19.335938 36.914062 C 19.335938 37.910156 20.097656 38.671875 21.09375 38.671875 C 22.089844 38.671875 22.851562 37.910156 22.851562 36.914062 C 22.851562 33.691406 25.488281 31.054688 28.710938 31.054688 C 29.707031 31.054688 30.46875 30.292969 30.46875 29.296875 C 30.46875 28.300781 29.707031 27.539062 28.710938 27.539062 Z M 28.710938 27.539062 "/>
</g>
</svg>
