<?xml version="1.0" encoding="UTF-8"?>
<svg xmlns="http://www.w3.org/2000/svg" xmlns:xlink="http://www.w3.org/1999/xlink" width="37pt" height="37pt" viewBox="0 0 37 37" version="1.1">
<g id="surface2116">
<path style=" stroke:none;fill-rule:nonzero;fill:rgb(0.784314%,0.784314%,28.235294%);fill-opacity:1;" d="M 18.5 1.480469 C 9.101562 1.480469 1.480469 9.101562 1.480469 18.5 C 1.480469 27.898438 9.101562 35.519531 18.5 35.519531 C 27.898438 35.519531 35.519531 27.898438 35.519531 18.5 C 35.519531 9.101562 27.898438 1.480469 18.5 1.480469 Z M 18.5 8.140625 C 19.726562 8.140625 20.71875 9.132812 20.71875 10.359375 C 20.71875 11.585938 19.726562 12.578125 18.5 12.578125 C 17.273438 12.578125 16.28125 11.585938 16.28125 10.359375 C 16.28125 9.132812 17.273438 8.140625 18.5 8.140625 Z M 21.460938 28.121094 L 15.539062 28.121094 L 15.539062 26.640625 L 17.019531 26.640625 L 17.019531 17.019531 L 15.539062 17.019531 L 15.539062 15.539062 L 19.980469 15.539062 L 19.980469 26.640625 L 21.460938 26.640625 Z M 21.460938 28.121094 "/>
</g>
</svg>
