<?xml version="1.0" encoding="UTF-8"?>
<svg xmlns="http://www.w3.org/2000/svg" xmlns:xlink="http://www.w3.org/1999/xlink" width="25pt" height="25pt" viewBox="0 0 37 37" version="1.1">
<g id="surface6597">
<path style=" stroke:none;fill-rule:nonzero;fill:#f1efef;fill-opacity:1;" d="M 18.460938 1.5 C 18.351562 1.5 18.242188 1.515625 18.128906 1.554688 L 1.851562 9.175781 C 1.628906 9.324219 1.480469 9.546875 1.480469 9.84375 L 1.480469 11.101562 C 1.480469 11.542969 1.777344 11.839844 2.21875 11.839844 L 8.140625 11.839844 C 8.511719 11.839844 8.878906 12.210938 8.878906 12.578125 C 8.878906 12.949219 8.511719 13.320312 8.140625 13.320312 L 7.398438 13.320312 L 7.398438 28.859375 L 29.601562 28.859375 L 29.601562 13.320312 L 28.859375 13.320312 C 28.488281 13.320312 28.121094 12.949219 28.121094 12.578125 C 28.121094 12.210938 28.488281 11.839844 28.859375 11.839844 L 34.78125 11.839844 C 35.222656 11.839844 35.519531 11.542969 35.519531 11.101562 L 35.519531 9.84375 C 35.519531 9.546875 35.371094 9.324219 35.078125 9.175781 L 18.796875 1.554688 C 18.683594 1.515625 18.574219 1.5 18.460938 1.5 Z M 10.707031 12.949219 C 10.769531 12.949219 15.546875 13.320312 17.761719 14.171875 L 17.761719 27.339844 C 15.992188 26.359375 12.683594 25.992188 10.707031 25.992188 C 10.503906 25.992188 10.335938 25.828125 10.335938 25.621094 L 10.335938 13.320312 C 10.335938 13.117188 10.503906 12.949219 10.707031 12.949219 Z M 26.269531 12.949219 C 26.472656 12.949219 26.640625 13.117188 26.640625 13.320312 L 26.640625 25.621094 C 26.640625 25.828125 26.472656 25.992188 26.269531 25.992188 C 24.300781 25.992188 21.003906 26.359375 19.238281 27.339844 L 19.238281 14.171875 C 21.449219 13.320312 26.207031 12.949219 26.269531 12.949219 Z M 4.441406 13.320312 L 4.441406 28.859375 L 5.921875 28.859375 L 5.921875 13.320312 Z M 31.078125 13.320312 L 31.078125 28.859375 L 32.558594 28.859375 L 32.558594 13.320312 Z M 3.699219 30.339844 C 2.441406 30.339844 1.480469 31.300781 1.480469 32.558594 L 1.480469 34.039062 L 35.519531 34.039062 L 35.519531 32.558594 C 35.519531 31.300781 34.558594 30.339844 33.300781 30.339844 Z M 3.699219 30.339844 "/>
</g>
</svg>
