<?xml version="1.0" encoding="UTF-8"?>
<svg xmlns="http://www.w3.org/2000/svg" xmlns:xlink="http://www.w3.org/1999/xlink" width="37pt" height="37pt" viewBox="0 0 37 37" version="1.1">
<g id="surface4117">
<path style=" stroke:none;fill-rule:nonzero;fill:#3c3533;fill-opacity:1;" d="M 5.78125 8.09375 C 5.144531 8.09375 4.625 8.613281 4.625 9.25 C 4.625 9.886719 5.144531 10.40625 5.78125 10.40625 L 8.347656 10.40625 L 9.214844 13.875 L 29.074219 13.875 L 26.867188 21.96875 L 15.03125 21.96875 L 15.03125 24.28125 L 26.863281 24.28125 C 27.90625 24.28125 28.820312 23.582031 29.097656 22.578125 L 32.101562 11.5625 L 11.019531 11.5625 L 10.589844 9.847656 C 10.332031 8.816406 9.40625 8.09375 8.347656 8.09375 Z M 25.4375 24.28125 C 23.535156 24.28125 21.96875 25.847656 21.96875 27.75 C 21.96875 29.652344 23.535156 31.21875 25.4375 31.21875 C 27.339844 31.21875 28.90625 29.652344 28.90625 27.75 C 28.90625 25.847656 27.339844 24.28125 25.4375 24.28125 Z M 15.03125 24.28125 C 13.128906 24.28125 11.5625 25.847656 11.5625 27.75 C 11.5625 29.652344 13.128906 31.21875 15.03125 31.21875 C 16.933594 31.21875 18.5 29.652344 18.5 27.75 C 18.5 25.847656 16.933594 24.28125 15.03125 24.28125 Z M 6.9375 16.1875 L 6.9375 18.5 L 16.1875 18.5 L 16.1875 16.1875 Z M 6.9375 20.8125 L 6.9375 23.125 L 12.71875 23.125 L 12.71875 20.8125 Z M 15.03125 26.59375 C 15.683594 26.59375 16.1875 27.097656 16.1875 27.75 C 16.1875 28.402344 15.683594 28.90625 15.03125 28.90625 C 14.378906 28.90625 13.875 28.402344 13.875 27.75 C 13.875 27.097656 14.378906 26.59375 15.03125 26.59375 Z M 25.4375 26.59375 C 26.089844 26.59375 26.59375 27.097656 26.59375 27.75 C 26.59375 28.402344 26.089844 28.90625 25.4375 28.90625 C 24.785156 28.90625 24.28125 28.402344 24.28125 27.75 C 24.28125 27.097656 24.785156 26.59375 25.4375 26.59375 Z M 25.4375 26.59375 "/>
</g>
</svg>
