<?xml version="1.0" encoding="UTF-8"?>
<svg xmlns="http://www.w3.org/2000/svg" xmlns:xlink="http://www.w3.org/1999/xlink" width="45pt" height="45pt" viewBox="0 0 37 37" version="1.1">
<g id="surface31950">
<path style=" stroke:none;fill-rule:nonzero;fill:#B4A29E;fill-opacity:1;" d="M 18.5 0 C 18.089844 0 17.761719 0.332031 17.761719 0.738281 L 17.761719 3.355469 C 17.980469 3.226562 18.230469 3.144531 18.5 3.144531 C 18.769531 3.144531 19.019531 3.226562 19.238281 3.355469 L 19.238281 0.738281 C 19.238281 0.332031 18.910156 0 18.5 0 Z M 26.515625 1.367188 C 26.191406 1.367188 25.90625 1.578125 25.808594 1.890625 L 22.503906 12.070312 C 22.375 12.460938 22.589844 12.878906 22.976562 13.003906 C 23.367188 13.128906 23.785156 12.917969 23.910156 12.53125 L 27.21875 2.347656 C 27.296875 2.121094 27.257812 1.871094 27.121094 1.675781 C 26.980469 1.480469 26.757812 1.367188 26.515625 1.367188 Z M 10.460938 1.367188 C 10.226562 1.375 10.007812 1.492188 9.875 1.6875 C 9.742188 1.878906 9.707031 2.125 9.78125 2.347656 L 13.089844 12.53125 C 13.214844 12.917969 13.632812 13.128906 14.023438 13.003906 C 14.410156 12.878906 14.625 12.460938 14.496094 12.070312 L 11.191406 1.890625 C 11.089844 1.570312 10.792969 1.359375 10.460938 1.367188 Z M 3.699219 1.480469 L 2.960938 3.328125 L 1.109375 4.070312 L 2.960938 4.808594 L 3.699219 6.660156 L 4.441406 4.808594 L 6.289062 4.070312 L 4.441406 3.328125 Z M 33.300781 1.480469 L 32.558594 3.328125 L 30.710938 4.070312 L 32.558594 4.808594 L 33.300781 6.660156 L 34.039062 4.808594 L 35.890625 4.070312 L 34.039062 3.328125 Z M 18.5 4.625 L 17.761719 6.476562 L 15.910156 7.214844 L 17.761719 7.953125 L 18.5 9.804688 L 19.238281 7.953125 L 21.089844 7.214844 L 19.238281 6.476562 Z M 5.554688 6.011719 L 5.074219 7.210938 C 5.019531 7.34375 4.945312 7.46875 4.855469 7.582031 L 8.054688 12.058594 C 8.199219 12.261719 8.425781 12.367188 8.65625 12.367188 C 8.804688 12.367188 8.953125 12.324219 9.085938 12.230469 C 9.417969 11.992188 9.496094 11.53125 9.257812 11.199219 Z M 31.445312 6.011719 L 27.742188 11.199219 C 27.503906 11.53125 27.582031 11.992188 27.914062 12.230469 C 28.042969 12.324219 28.195312 12.367188 28.34375 12.367188 C 28.574219 12.367188 28.800781 12.261719 28.945312 12.058594 L 32.140625 7.582031 C 32.054688 7.46875 31.980469 7.34375 31.925781 7.210938 Z M 17.761719 11.074219 L 17.761719 13.691406 C 17.761719 14.097656 18.089844 14.429688 18.5 14.429688 C 18.910156 14.429688 19.238281 14.097656 19.238281 13.691406 L 19.238281 11.074219 C 19.019531 11.203125 18.769531 11.285156 18.5 11.285156 C 18.230469 11.285156 17.980469 11.203125 17.761719 11.074219 Z M 30.339844 13.9375 C 23.417969 14.042969 20.160156 15.628906 19.238281 16.171875 L 19.238281 30.8125 C 20.820312 30.300781 24.246094 29.496094 30.339844 29.433594 Z M 6.660156 13.9375 L 6.660156 29.433594 C 12.753906 29.496094 16.179688 30.300781 17.761719 30.8125 L 17.761719 16.171875 C 16.847656 15.628906 13.589844 14.046875 6.660156 13.9375 Z M 4.097656 16.277344 C 3.949219 16.277344 3.488281 16.277344 3.171875 16.632812 C 2.863281 16.980469 2.914062 17.402344 2.941406 17.65625 C 2.949219 17.722656 2.957031 17.796875 2.957031 17.875 L 2.957031 33.183594 C 2.957031 34.078125 3.785156 34.78125 4.839844 34.78125 L 15.074219 34.78125 C 15.554688 35.296875 16.699219 36.261719 18.5 36.261719 C 20.304688 36.261719 21.445312 35.296875 21.929688 34.78125 L 32.164062 34.78125 C 33.21875 34.78125 34.042969 34.078125 34.042969 33.183594 L 34.042969 17.875 C 34.042969 16.980469 33.214844 16.277344 32.160156 16.277344 L 31.820312 16.277344 L 31.820312 30.171875 C 31.820312 30.582031 31.488281 30.910156 31.078125 30.910156 C 22.089844 30.910156 18.890625 32.523438 18.84375 32.546875 C 18.8125 32.5625 18.785156 32.578125 18.75 32.589844 C 18.746094 32.589844 18.746094 32.59375 18.746094 32.59375 C 18.667969 32.621094 18.585938 32.632812 18.503906 32.632812 L 18.5 32.632812 C 18.421875 32.632812 18.34375 32.621094 18.265625 32.59375 C 18.265625 32.59375 18.261719 32.59375 18.261719 32.59375 C 18.230469 32.582031 18.195312 32.566406 18.164062 32.546875 C 18.105469 32.519531 14.808594 30.910156 5.921875 30.910156 C 5.515625 30.910156 5.183594 30.582031 5.183594 30.171875 L 5.183594 16.277344 Z M 4.097656 16.277344 "/>
</g>
</svg>
