<?xml version="1.0" encoding="UTF-8"?>
<svg xmlns="http://www.w3.org/2000/svg" xmlns:xlink="http://www.w3.org/1999/xlink" width="37pt" height="37pt" viewBox="0 0 37 37" version="1.1">
<g id="surface7535">
<path style=" stroke:none;fill-rule:nonzero;fill:rgb(0.784314%,0.784314%,28.235294%);fill-opacity:1;" d="M 16.1875 1.734375 C 14.910156 1.734375 13.875 2.769531 13.875 4.046875 L 13.875 5.203125 L 13.644531 5.203125 L 4.046875 6.359375 L 4.046875 8.09375 L 32.953125 8.09375 L 32.953125 6.359375 L 23.355469 5.203125 L 23.125 5.203125 L 23.125 4.046875 C 23.125 2.769531 22.089844 1.734375 20.8125 1.734375 Z M 16.1875 4.046875 L 20.8125 4.046875 L 20.8125 5.203125 L 16.1875 5.203125 Z M 5.78125 9.25 L 8.09375 33.53125 L 28.90625 33.53125 L 31.175781 9.828125 Z M 18.5 13.296875 C 19.269531 13.296875 19.65625 13.875 19.65625 13.875 L 19.65625 30.640625 L 17.34375 30.640625 L 17.34375 13.875 C 17.34375 13.875 17.730469 13.296875 18.5 13.296875 Z M 10.972656 13.335938 C 11.738281 13.285156 12.164062 13.835938 12.164062 13.835938 L 13.300781 30.640625 L 10.980469 30.640625 L 9.859375 13.996094 C 9.859375 13.996094 10.203125 13.390625 10.972656 13.335938 Z M 26.003906 13.335938 C 26.773438 13.390625 27.117188 13.996094 27.117188 13.996094 L 25.992188 30.640625 L 23.671875 30.640625 L 24.808594 13.835938 C 24.808594 13.835938 25.234375 13.285156 26.003906 13.335938 Z M 26.003906 13.335938 "/>
</g>
</svg>
